{"accessors":[{"bufferView":2,"componentType":5126,"count":98,"max":[0.9545000195503235,0.8670997619628906,1.2762999534606934],"min":[0.1306999921798706,0.180999755859375,0.034699976444244385],"type":"VEC3","byteOffset":0},{"bufferView":2,"byteOffset":1176,"componentType":5126,"count":98,"max":[0.9658856987953186,0.8691344857215881,0.9582042098045349],"min":[-0.49139928817749023,-0.9575076103210449,-0.790898859500885],"type":"VEC3"},{"bufferView":3,"componentType":5126,"count":98,"max":[0.9864724278450012,0.8933205008506775,0.6636527180671692,1],"min":[-0.9372473955154419,-0.8452498912811279,-0.9813866019248962,-1],"type":"VEC4","byteOffset":0},{"bufferView":1,"componentType":5126,"count":98,"max":[0.689300000667572,0.9345999956130981],"min":[0.00559999980032444,0.018200000748038292],"type":"VEC2","byteOffset":0},{"bufferView":0,"componentType":5125,"count":171,"max":[97],"min":[0],"type":"SCALAR","byteOffset":0},{"bufferView":2,"byteOffset":2352,"componentType":5126,"count":8235,"max":[1.1812000274658203,1.2606000900268555,1.2762999534606934],"min":[0,0,0],"type":"VEC3"},{"bufferView":2,"byteOffset":101172,"componentType":5126,"count":8235,"max":[0.9996328949928284,0.9998631477355957,0.9991412162780762],"min":[-0.9996322989463806,-0.9996204972267151,-0.9993481040000916],"type":"VEC3"},{"bufferView":3,"byteOffset":1568,"componentType":5126,"count":8235,"max":[0.9988704323768616,0.9986119270324707,0.9933143854141235,1],"min":[-0.9999032616615295,-0.9992790818214417,-0.999380350112915,-1],"type":"VEC4"},{"bufferView":1,"byteOffset":784,"componentType":5126,"count":8235,"max":[0.9994999766349792,0.9921000003814697],"min":[0.0005000000237487257,0.0005000000237487257],"type":"VEC2"},{"bufferView":0,"byteOffset":684,"componentType":5125,"count":36429,"max":[8234],"min":[0],"type":"SCALAR"}],"asset":{"extras":{"author":"Mantas Talmantas (https://sketchfab.com/mantasT)","license":"CC-BY-4.0 (http://creativecommons.org/licenses/by/4.0/)","source":"https://sketchfab.com/models/afefdb789f7c43399c6faef1849c47fc","title":"Onion"},"generator":"Sketchfab-3.20.7","version":"2.0"},"bufferViews":[{"buffer":0,"byteLength":146400,"byteOffset":0,"name":"floatBufferViews","target":34963},{"buffer":0,"byteLength":66664,"byteOffset":146400,"byteStride":8,"name":"floatBufferViews","target":34962},{"buffer":0,"byteLength":199992,"byteOffset":213064,"byteStride":12,"name":"floatBufferViews","target":34962},{"buffer":0,"byteLength":133328,"byteOffset":413056,"byteStride":16,"name":"floatBufferViews","target":34962},{"buffer":0,"byteOffset":546384,"byteLength":211488},{"buffer":0,"byteOffset":757872,"byteLength":190338}],"buffers":[{"byteLength":948212,"uri":"data:application/octet-stream;base64,"}],"images":[{"bufferView":4,"mimeType":"image/jpeg"},{"bufferView":5,"mimeType":"image/png"}],"materials":[{"doubleSided":true,"emissiveFactor":[0,0,0],"name":"wire_143224087","normalTexture":{"index":1,"scale":1,"texCoord":0},"pbrMetallicRoughness":{"baseColorFactor":[1,1,1,1],"baseColorTexture":{"index":0,"texCoord":0},"metallicFactor":0,"roughnessFactor":0.6},"alphaMode":"OPAQUE"}],"meshes":[{"primitives":[{"attributes":{"NORMAL":1,"POSITION":0,"TANGENT":2,"TEXCOORD_0":3},"indices":4,"material":0,"mode":4}]},{"primitives":[{"attributes":{"NORMAL":6,"POSITION":5,"TANGENT":7,"TEXCOORD_0":8},"indices":9,"material":0,"mode":4}]}],"nodes":[{"children":[1],"name":"RootNode (gltf orientation matrix)","rotation":[-0.7071067811865475,0,0,0.7071067811865476],"translation":[0,0,0],"scale":[1,1,1]},{"children":[2],"name":"RootNode (model correction matrix)"},{"children":[3],"matrix":[1,0,0,0,0,1,0,0,0,0,1,0,-0.7318000197410583,-5.879499912261963,-0.6816999912261963,1],"name":"onion_II.obj.cleaner.gles"},{"children":[4,5],"name":""},{"mesh":0,"name":""},{"mesh":1,"name":""}],"samplers":[{"magFilter":9729,"minFilter":9987,"wrapS":10497,"wrapT":10497}],"scene":0,"scenes":[{"name":"OSG_Scene","nodes":[0]}],"textures":[{"sampler":0,"source":0},{"sampler":0,"source":1}]}
